<svg width="80" height="86" viewBox="0 0 80 86" fill="none" xmlns="http://www.w3.org/2000/svg">
<path d="M32.0006 1.47908C32.5212 2.11169 32.8401 2.88588 32.9162 3.70163C32.9922 4.51739 32.8219 5.3372 32.4272 6.05515C29.3438 11.7165 27.7335 18.0623 27.7445 24.5088C27.7445 45.9545 45.2274 63.3201 66.7745 63.3201C69.5852 63.3201 72.3212 63.0268 74.9506 62.4668C75.7566 62.2922 76.5962 62.359 77.3645 62.6587C78.1328 62.9585 78.7958 63.4779 79.2707 64.1522C79.772 64.8532 80.0275 65.7003 79.9976 66.5616C79.9677 67.423 79.6541 68.2503 79.1054 68.9149C74.9223 74.0533 69.6452 78.1934 63.6589 81.0334C57.6726 83.8734 51.1279 85.3417 44.5021 85.3312C19.915 85.3312 0 65.5228 0 41.1171C0 22.7488 11.2749 6.99384 27.3285 0.316389C28.1282 -0.0215802 29.0159 -0.0909468 29.8584 0.118709C30.7008 0.328365 31.4525 0.805723 32.0006 1.47908V1.47908Z" fill="#444444"/>
</svg>
