<svg width="86" height="86" viewBox="0 0 86 86" fill="none" xmlns="http://www.w3.org/2000/svg">
<path fill-rule="evenodd" clip-rule="evenodd" d="M43 0C44.4255 0 45.7927 0.566293 46.8007 1.5743C47.8087 2.58231 48.375 3.94946 48.375 5.375V10.75C48.375 12.1755 47.8087 13.5427 46.8007 14.5507C45.7927 15.5587 44.4255 16.125 43 16.125C41.5745 16.125 40.2073 15.5587 39.1993 14.5507C38.1913 13.5427 37.625 12.1755 37.625 10.75V5.375C37.625 3.94946 38.1913 2.58231 39.1993 1.5743C40.2073 0.566293 41.5745 0 43 0V0ZM64.5 43C64.5 48.7022 62.2348 54.1708 58.2028 58.2028C54.1708 62.2348 48.7022 64.5 43 64.5C37.2978 64.5 31.8292 62.2348 27.7972 58.2028C23.7652 54.1708 21.5 48.7022 21.5 43C21.5 37.2978 23.7652 31.8292 27.7972 27.7972C31.8292 23.7652 37.2978 21.5 43 21.5C48.7022 21.5 54.1708 23.7652 58.2028 27.7972C62.2348 31.8292 64.5 37.2978 64.5 43V43ZM62.006 69.6062L65.8061 73.4064C66.8199 74.3855 68.1776 74.9272 69.5869 74.915C70.9962 74.9027 72.3443 74.3375 73.3409 73.3409C74.3375 72.3443 74.9027 70.9962 74.915 69.5869C74.9272 68.1776 74.3855 66.8199 73.4064 65.8061L69.6062 62.006C68.5925 61.0269 67.2348 60.4851 65.8255 60.4974C64.4162 60.5096 63.068 61.0749 62.0715 62.0715C61.0749 63.068 60.5096 64.4162 60.4974 65.8255C60.4851 67.2348 61.0269 68.5925 62.006 69.6062V69.6062ZM73.401 12.5936C74.4087 13.6016 74.9747 14.9685 74.9747 16.3938C74.9747 17.819 74.4087 19.1859 73.401 20.1939L69.6062 23.994C69.1104 24.5074 68.5173 24.9168 67.8615 25.1985C67.2058 25.4802 66.5005 25.6285 65.7868 25.6347C65.0731 25.6409 64.3653 25.5049 63.7047 25.2347C63.0442 24.9644 62.4441 24.5653 61.9394 24.0606C61.4347 23.556 61.0356 22.9558 60.7653 22.2953C60.4951 21.6347 60.3591 20.9269 60.3653 20.2132C60.3715 19.4995 60.5198 18.7942 60.8015 18.1385C61.0832 17.4827 61.4926 16.8896 62.006 16.3938L65.8061 12.5936C66.8141 11.586 68.181 11.0199 69.6062 11.0199C71.0315 11.0199 72.3984 11.586 73.4064 12.5936H73.401ZM80.625 48.375C82.0505 48.375 83.4177 47.8087 84.4257 46.8007C85.4337 45.7927 86 44.4255 86 43C86 41.5745 85.4337 40.2073 84.4257 39.1993C83.4177 38.1913 82.0505 37.625 80.625 37.625H75.25C73.8245 37.625 72.4573 38.1913 71.4493 39.1993C70.4413 40.2073 69.875 41.5745 69.875 43C69.875 44.4255 70.4413 45.7927 71.4493 46.8007C72.4573 47.8087 73.8245 48.375 75.25 48.375H80.625ZM43 69.875C44.4255 69.875 45.7927 70.4413 46.8007 71.4493C47.8087 72.4573 48.375 73.8245 48.375 75.25V80.625C48.375 82.0505 47.8087 83.4177 46.8007 84.4257C45.7927 85.4337 44.4255 86 43 86C41.5745 86 40.2073 85.4337 39.1993 84.4257C38.1913 83.4177 37.625 82.0505 37.625 80.625V75.25C37.625 73.8245 38.1913 72.4573 39.1993 71.4493C40.2073 70.4413 41.5745 69.875 43 69.875V69.875ZM16.3938 23.994C16.8928 24.4934 17.4853 24.8896 18.1375 25.16C18.7896 25.4304 19.4887 25.5697 20.1947 25.57C20.9007 25.5702 21.5998 25.4314 22.2521 25.1615C22.9045 24.8915 23.4973 24.4957 23.9967 23.9967C24.4961 23.4976 24.8923 22.9051 25.1627 22.253C25.4331 21.6008 25.5724 20.9018 25.5727 20.1958C25.5729 19.4898 25.4341 18.7906 25.1641 18.1383C24.8942 17.4859 24.4984 16.8931 23.9994 16.3938L20.1939 12.5936C19.1801 11.6145 17.8224 11.0728 16.4131 11.085C15.0038 11.0972 13.6557 11.6625 12.6591 12.6591C11.6625 13.6557 11.0972 15.0038 11.085 16.4131C11.0728 17.8224 11.6145 19.1801 12.5936 20.1939L16.3938 23.994V23.994ZM23.994 69.6062L20.1939 73.4064C19.1801 74.3855 17.8224 74.9272 16.4131 74.915C15.0038 74.9027 13.6557 74.3375 12.6591 73.3409C11.6625 72.3443 11.0972 70.9962 11.085 69.5869C11.0728 68.1776 11.6145 66.8199 12.5936 65.8061L16.3938 62.006C17.4075 61.0269 18.7652 60.4851 20.1745 60.4974C21.5838 60.5096 22.932 61.0749 23.9285 62.0715C24.9251 63.068 25.4904 64.4162 25.5026 65.8255C25.5149 67.2348 24.9731 68.5925 23.994 69.6062V69.6062ZM10.75 48.375C12.1755 48.375 13.5427 47.8087 14.5507 46.8007C15.5587 45.7927 16.125 44.4255 16.125 43C16.125 41.5745 15.5587 40.2073 14.5507 39.1993C13.5427 38.1913 12.1755 37.625 10.75 37.625H5.375C3.94946 37.625 2.58231 38.1913 1.5743 39.1993C0.566293 40.2073 0 41.5745 0 43C0 44.4255 0.566293 45.7927 1.5743 46.8007C2.58231 47.8087 3.94946 48.375 5.375 48.375H10.75Z" fill="#CCCCCC"/>
</svg>
